<?xml version="1.0" standalone="no"?>
<!DOCTYPE svg PUBLIC "-//W3C//DTD SVG 20010904//EN"
 "http://www.w3.org/TR/2001/REC-SVG-20010904/DTD/svg10.dtd">
<svg version="1.0" xmlns="http://www.w3.org/2000/svg"
 width="1198.000000pt" height="307.000000pt" viewBox="0 0 1198.000000 307.000000"
 preserveAspectRatio="xMidYMid meet">
<metadata>
Created by potrace 1.16, written by Peter Selinger 2001-2019
</metadata>
<g transform="translate(0.000000,307.000000) scale(0.100000,-0.100000)"
fill="#000000" stroke="none">
<path d="M820 2813 c-276 -20 -693 -84 -724 -111 -17 -16 -18 -32 -13 -272 2
-140 8 -263 12 -274 6 -14 15 -17 39 -13 473 84 554 92 986 91 438 0 527 -8
996 -91 28 -5 32 -2 38 23 4 16 9 140 13 275 l6 247 -24 15 c-44 28 -420 87
-678 107 -122 9 -540 11 -651 3z m105 -113 c39 -6 99 -18 134 -26 61 -16 67
-15 160 7 80 20 122 24 251 24 l155 0 59 -35 59 -35 82 -180 c45 -99 81 -181
80 -183 -1 -2 -65 6 -141 17 -381 55 -904 55 -1283 1 -74 -11 -136 -18 -138
-16 -2 1 34 85 80 186 l83 183 50 25 c27 14 65 29 84 33 53 10 206 10 285 -1z"/>
<path d="M597 2622 c-35 -16 -42 -27 -92 -141 l-55 -124 53 7 c123 16 312 24
440 19 120 -5 137 -4 137 10 0 11 -29 22 -112 43 -93 23 -136 28 -244 28
l-132 1 29 78 c40 109 40 108 -24 79z"/>
<path d="M1590 2638 c0 -2 14 -39 30 -83 16 -44 30 -82 30 -85 0 -3 -57 -6
-127 -6 -104 -1 -149 -6 -240 -28 -181 -44 -159 -53 155 -59 147 -3 285 -10
307 -15 22 -6 41 -9 44 -7 2 3 -20 59 -49 126 -48 108 -57 122 -91 140 -34 17
-59 24 -59 17z"/>
<path d="M2665 2602 c-3 -3 -5 -13 -5 -22 0 -14 12 -19 52 -22 71 -7 84 -26
94 -135 4 -49 4 -254 1 -458 -7 -389 -16 -486 -53 -526 -20 -22 -18 -22 -135
-3 -31 5 -39 2 -58 -21 -46 -60 -19 -90 73 -83 113 9 205 77 261 193 37 75 45
185 45 600 0 276 3 376 13 395 9 18 25 28 55 34 33 8 42 14 42 31 0 21 -3 21
-190 22 -104 0 -192 -2 -195 -5z"/>
<path d="M6675 2602 c-3 -3 -5 -13 -5 -22 0 -13 11 -19 46 -23 83 -9 79 14 82
-437 l3 -400 -25 -25 c-14 -14 -36 -25 -50 -25 -25 0 -52 -31 -39 -44 3 -3 91
-6 195 -6 178 0 188 1 188 19 0 21 -19 31 -60 31 -15 0 -38 9 -51 19 -23 19
-24 24 -27 206 -3 149 -1 189 10 196 7 5 129 9 270 9 253 0 257 0 269 -21 12
-24 8 -340 -5 -371 -8 -16 -39 -31 -89 -43 -20 -4 -27 -11 -25 -23 3 -15 23
-17 196 -20 186 -2 192 -2 192 18 0 13 -9 21 -27 25 -60 12 -78 21 -90 45 -17
33 -19 751 -2 798 10 30 48 52 89 52 20 0 32 21 22 37 -4 6 -77 10 -189 9
-179 0 -183 -1 -183 -22 0 -17 9 -22 47 -30 69 -13 73 -27 70 -219 l-2 -160
-275 0 -275 0 0 166 c0 189 5 204 77 215 31 5 38 11 38 29 0 22 -1 22 -185 22
-101 0 -187 -2 -190 -5z"/>
<path d="M3365 2456 c-126 -31 -229 -115 -286 -232 -29 -60 -34 -81 -37 -166
-3 -78 0 -110 17 -165 93 -302 518 -393 740 -158 231 244 113 657 -207 724
-67 14 -163 13 -227 -3z m215 -57 c110 -49 181 -165 199 -324 16 -141 -16
-265 -87 -338 -60 -62 -105 -82 -192 -82 -172 0 -283 114 -321 331 -33 192 46
369 188 420 58 20 160 17 213 -7z"/>
<path d="M5935 2446 c-81 -38 -125 -103 -125 -183 0 -105 41 -161 189 -262
140 -95 166 -130 159 -219 -4 -48 -10 -60 -40 -88 -91 -83 -241 -35 -297 97
-16 36 -27 49 -39 47 -19 -4 -19 -48 0 -131 13 -60 43 -81 141 -97 118 -20
211 4 278 71 59 58 79 129 60 211 -22 95 -63 140 -221 238 -93 58 -130 106
-130 171 0 86 75 140 174 123 49 -8 110 -66 121 -113 5 -22 13 -31 26 -31 16
0 19 7 18 53 -2 94 -9 110 -54 123 -22 7 -78 13 -125 13 -69 1 -94 -4 -135
-23z"/>
<path d="M8040 2454 c-116 -31 -213 -110 -265 -218 -86 -176 -60 -368 66 -501
126 -134 351 -172 528 -90 68 32 160 125 194 196 78 167 50 372 -70 500 -104
111 -288 157 -453 113z m211 -49 c86 -31 151 -103 191 -213 17 -46 21 -81 22
-182 1 -118 -1 -129 -28 -188 -109 -235 -414 -225 -528 19 -52 110 -63 258
-28 371 50 162 215 248 371 193z"/>
<path d="M11552 2457 c-84 -31 -141 -111 -142 -199 0 -97 41 -156 174 -247
121 -83 144 -104 162 -147 40 -95 -9 -193 -105 -209 -88 -15 -180 42 -220 136
-16 36 -27 49 -39 47 -19 -4 -19 -42 -1 -136 10 -48 15 -55 45 -68 19 -8 67
-19 108 -26 252 -39 413 162 292 365 -26 43 -51 65 -151 132 -138 92 -165 125
-165 197 0 43 5 55 33 83 47 47 110 56 174 24 39 -20 53 -34 73 -76 30 -64 54
-67 58 -8 2 22 -1 58 -5 80 -8 35 -13 41 -48 52 -51 15 -200 15 -243 0z"/>
<path d="M3924 2451 c-14 -15 2 -31 38 -38 30 -6 46 -16 55 -33 9 -19 13 -109
13 -345 0 -356 0 -357 -65 -369 -26 -5 -35 -12 -35 -27 0 -19 6 -19 163 -17
134 3 162 6 162 18 0 8 -17 18 -43 25 -69 16 -73 27 -70 200 l3 150 233 3 232
2 0 -159 c0 -177 -2 -184 -65 -195 -26 -5 -35 -12 -35 -26 0 -19 8 -20 160
-20 150 0 160 1 160 19 0 14 -10 21 -35 25 -67 13 -65 1 -65 376 0 294 2 341
16 354 8 9 24 16 34 16 30 0 50 11 50 29 0 14 -18 16 -160 16 -142 0 -160 -2
-160 -16 0 -18 20 -29 49 -29 10 0 25 -8 34 -18 25 -27 25 -297 1 -306 -27
-11 -414 -7 -435 4 -17 10 -19 22 -19 118 0 180 4 190 83 207 19 4 27 11 25
22 -3 14 -23 17 -161 17 -87 1 -160 -1 -163 -3z"/>
<path d="M8677 2453 c-40 -3 -60 -9 -64 -20 -7 -19 13 -33 49 -33 56 0 58 -13
58 -365 0 -356 0 -357 -65 -369 -26 -5 -35 -12 -35 -26 0 -19 8 -20 165 -20
153 0 165 1 165 18 0 14 -11 21 -47 28 -36 7 -51 15 -60 34 -9 19 -13 110 -13
356 0 378 -4 361 80 351 71 -9 118 -34 148 -80 23 -34 27 -51 27 -111 0 -107
-47 -170 -147 -196 -24 -7 -38 -17 -38 -27 0 -26 119 -12 188 24 83 42 116 93
120 187 3 59 0 81 -16 113 -29 55 -82 99 -144 118 -55 17 -259 27 -371 18z"/>
<path d="M4862 2433 c2 -12 16 -20 41 -24 21 -3 49 -16 62 -29 l25 -23 0 -318
c0 -181 -4 -329 -10 -343 -7 -20 -19 -27 -50 -32 -30 -5 -40 -11 -40 -25 0
-18 10 -19 145 -19 135 0 145 1 145 19 0 14 -10 20 -41 24 -75 10 -74 3 -77
325 l-2 287 32 -36 c47 -51 335 -381 452 -518 55 -64 107 -116 115 -116 14 0
16 33 12 315 -5 443 3 490 79 490 23 0 30 4 30 20 0 19 -7 20 -151 20 -137 0
-150 -2 -147 -17 2 -12 17 -20 47 -25 25 -4 48 -11 53 -16 19 -19 28 -134 26
-342 l-3 -223 -215 242 c-118 133 -237 273 -264 311 l-51 70 -108 0 c-98 0
-108 -2 -105 -17z"/>
<path d="M9230 2430 c0 -16 7 -20 33 -20 18 0 42 -6 53 -14 18 -14 19 -29 19
-356 l0 -342 -24 -19 c-13 -10 -34 -19 -47 -19 -17 0 -24 -6 -24 -20 0 -19 7
-20 161 -20 147 0 160 1 157 17 -2 12 -16 20 -40 24 -67 11 -68 13 -68 195 0
156 1 164 20 164 20 0 315 -320 315 -342 0 -7 -11 -15 -25 -18 -14 -3 -25 -12
-25 -20 0 -12 25 -16 140 -18 76 -1 145 0 152 2 20 8 3 36 -22 36 -12 0 -37
10 -56 23 -35 23 -369 395 -369 410 0 5 39 46 88 92 176 167 232 207 309 223
23 5 38 14 38 22 0 12 -26 16 -142 18 -123 2 -143 0 -143 -13 0 -8 15 -21 33
-29 l32 -13 -155 -157 c-85 -86 -162 -156 -172 -156 -16 0 -18 12 -18 145 0
132 2 147 20 165 11 11 33 20 50 20 23 0 30 4 30 20 0 19 -7 20 -160 20 -153
0 -160 -1 -160 -20z"/>
<path d="M10080 2430 c0 -16 7 -20 35 -20 22 0 43 -8 55 -20 19 -19 20 -33 20
-348 0 -365 1 -358 -66 -377 -23 -6 -39 -17 -39 -25 0 -13 28 -15 163 -18 155
-2 162 -2 162 17 0 15 -9 21 -40 26 -72 12 -71 9 -68 385 3 315 4 332 22 346
11 8 35 14 53 14 26 0 33 4 33 20 0 19 -7 20 -165 20 -158 0 -165 -1 -165 -20z"/>
<path d="M10467 2444 c-12 -12 6 -34 29 -34 35 0 70 -19 85 -48 19 -35 19
-635 1 -669 -9 -15 -26 -25 -52 -29 -30 -5 -40 -11 -40 -25 0 -18 10 -19 144
-19 80 0 147 4 150 8 9 15 -9 29 -48 35 -22 3 -43 10 -48 15 -21 21 -28 100
-27 342 l0 255 32 -35 c41 -45 493 -564 530 -608 15 -19 33 -32 40 -29 9 3 12
88 12 378 0 286 3 379 13 396 8 15 26 25 52 29 30 5 40 11 40 25 0 18 -10 19
-151 19 -137 0 -150 -2 -147 -17 2 -12 17 -20 47 -25 25 -4 49 -12 54 -17 19
-19 26 -103 26 -331 l1 -235 -64 70 c-202 223 -355 400 -409 472 l-62 83 -101
0 c-55 0 -103 -3 -107 -6z"/>
<path d="M850 2143 c-306 -21 -740 -82 -740 -105 0 -36 59 -268 96 -378 150
-445 455 -831 837 -1059 l37 -23 0 786 0 786 -92 -2 c-51 -1 -113 -3 -138 -5z
m-85 -178 c156 -47 268 -211 251 -369 -8 -84 -54 -173 -117 -230 -175 -157
-446 -103 -551 112 -29 59 -33 76 -33 147 1 66 5 90 28 140 29 63 89 132 145
167 76 47 187 61 277 33z"/>
<path d="M1160 2045 l0 -105 100 -66 100 -67 0 -214 c0 -117 -2 -213 -5 -213
-3 0 -46 27 -95 60 -49 33 -92 60 -95 60 -3 0 -5 -205 -5 -455 0 -371 2 -455
13 -455 8 0 55 27 105 60 l92 61 2 319 3 320 87 -58 88 -57 0 -177 c0 -98 2
-178 4 -178 3 0 27 24 54 53 200 211 366 503 457 800 25 84 77 309 71 314 -4
4 -160 33 -178 33 -16 0 -18 -24 -20 -320 l-3 -320 -92 62 -93 61 0 273 c0
150 -3 275 -8 277 -4 3 -49 8 -99 12 l-93 8 -2 -217 -3 -216 -87 58 -88 57 0
168 0 167 -105 0 -105 0 0 -105z m495 -432 l85 -56 0 -219 0 -219 -90 61 -90
61 0 214 c0 118 2 215 5 215 3 0 43 -25 90 -57z"/>
<path d="M9397 1221 c-3 -16 -9 -40 -13 -55 -8 -35 7 -33 44 4 26 25 38 30 81
30 l51 0 0 -171 c0 -98 -4 -178 -10 -190 -6 -11 -21 -19 -35 -19 -14 0 -25 -6
-25 -12 0 -10 26 -13 95 -13 69 0 95 3 95 13 0 6 -8 12 -18 12 -38 0 -42 18
-42 202 l0 178 43 0 c53 0 91 -19 95 -48 2 -12 9 -22 16 -22 9 0 15 19 19 58
5 63 3 72 -15 54 -15 -15 -344 -17 -353 -2 -11 18 -22 11 -28 -19z"/>
<path d="M8294 1222 c-48 -23 -69 -65 -61 -119 7 -43 34 -74 104 -119 57 -37
73 -58 73 -102 0 -39 -32 -66 -76 -65 -38 1 -68 23 -90 65 -23 44 -37 35 -31
-18 2 -25 9 -50 14 -55 17 -17 102 -27 147 -17 66 14 91 46 91 120 0 56 -2 62
-36 91 -20 18 -58 48 -85 67 -44 32 -49 39 -49 75 0 32 5 42 27 54 36 20 76 6
103 -36 11 -18 23 -32 28 -33 10 0 9 88 -2 94 -4 3 -33 8 -62 11 -41 4 -64 1
-95 -13z"/>
<path d="M3880 1215 c0 -9 9 -15 24 -15 13 0 27 -7 30 -16 3 -9 6 -75 6 -147
1 -202 31 -248 166 -249 71 0 113 18 148 65 19 26 29 108 35 310 1 20 8 30 26
37 47 18 27 30 -50 30 -76 0 -97 -12 -51 -30 22 -8 25 -17 31 -86 15 -157 -9
-249 -72 -279 -76 -36 -155 10 -168 97 -3 24 -5 92 -3 153 3 106 4 109 27 115
14 3 26 11 29 18 3 9 -20 12 -87 12 -74 0 -91 -3 -91 -15z"/>
<path d="M4670 1215 c0 -8 9 -15 19 -15 41 0 51 -36 50 -170 0 -164 -7 -204
-37 -208 -12 -2 -22 -10 -22 -18 0 -11 17 -14 80 -14 63 0 80 3 80 14 0 9 -12
16 -27 18 -24 3 -29 9 -35 43 -10 60 -9 255 1 255 6 0 16 -8 23 -19 38 -54
282 -320 289 -315 5 3 9 95 9 205 l0 199 25 10 c48 18 26 30 -55 30 -83 0
-102 -11 -51 -28 37 -13 43 -40 39 -183 l-3 -107 -113 127 c-62 69 -122 141
-135 158 -20 30 -26 33 -79 33 -45 0 -58 -3 -58 -15z"/>
<path d="M5510 1220 c0 -6 11 -15 25 -20 l25 -10 0 -175 0 -175 -25 -12 c-44
-20 -27 -28 60 -28 83 0 111 11 60 24 l-25 6 0 180 0 180 25 10 c49 19 26 30
-60 30 -51 0 -85 -4 -85 -10z"/>
<path d="M6020 1220 c0 -6 10 -14 23 -19 19 -7 39 -47 100 -198 43 -103 77
-194 77 -201 0 -8 7 -12 16 -10 9 2 34 49 63 118 74 178 128 279 156 292 43
19 28 28 -50 28 -75 0 -96 -11 -51 -27 l25 -8 -56 -135 c-30 -74 -58 -139 -63
-143 -6 -7 -49 92 -115 264 -4 11 0 18 14 22 12 3 21 10 21 16 0 7 -29 11 -80
11 -48 0 -80 -4 -80 -10z"/>
<path d="M6800 1220 c0 -6 11 -15 25 -20 l25 -10 0 -176 0 -176 -30 -11 c-16
-6 -30 -15 -30 -19 0 -4 74 -8 165 -8 l165 0 10 25 c31 81 14 104 -28 39 l-23
-35 -77 3 -77 3 -3 83 -3 82 51 0 c44 0 52 -3 62 -25 19 -42 28 -28 28 45 0
70 -14 93 -26 45 -6 -23 -11 -25 -66 -25 l-59 0 3 78 3 77 34 3 c62 6 101 -7
119 -39 23 -40 46 -39 38 2 -3 17 -6 40 -6 50 0 18 -10 19 -150 19 -96 0 -150
-4 -150 -10z"/>
<path d="M7510 1220 c-8 -5 -12 -10 -10 -12 3 -2 14 -8 25 -14 19 -10 20 -23
23 -188 l2 -176 -25 -10 c-49 -19 -26 -30 60 -30 86 0 109 11 60 30 -24 9 -25
14 -25 85 0 73 1 75 25 75 19 0 34 -15 68 -67 24 -38 56 -79 70 -91 27 -26 86
-43 117 -35 23 6 27 23 5 23 -24 0 -80 56 -125 125 l-42 64 35 31 c67 58 55
153 -24 184 -44 18 -214 22 -239 6z m208 -53 c26 -27 32 -79 13 -115 -13 -24
-72 -46 -101 -37 -18 6 -20 15 -20 89 0 45 3 86 8 90 13 14 76 -3 100 -27z"/>
<path d="M8840 1221 c0 -5 10 -13 23 -17 12 -4 25 -12 29 -18 4 -6 8 -84 8
-173 0 -134 -3 -164 -16 -177 -8 -9 -22 -16 -30 -16 -8 0 -14 -4 -14 -10 0 -6
37 -10 90 -10 53 0 90 4 90 10 0 6 -6 10 -14 10 -8 0 -22 7 -30 16 -13 13 -16
43 -16 177 0 89 4 167 8 173 4 6 17 14 30 18 47 15 18 26 -68 26 -49 0 -90 -4
-90 -9z"/>
<path d="M10120 1215 c0 -8 8 -15 18 -15 27 0 44 -23 101 -137 44 -88 51 -111
51 -161 0 -60 -11 -82 -42 -82 -10 0 -18 -6 -18 -12 0 -17 182 -16 188 1 2 6
-7 11 -21 11 -39 0 -50 22 -45 93 3 55 12 78 59 163 42 75 63 103 87 114 54
26 40 40 -38 40 -56 0 -70 -3 -70 -15 0 -8 9 -15 20 -15 11 0 20 -3 20 -6 0
-6 -67 -129 -86 -158 -11 -17 -16 -12 -47 50 -46 93 -52 114 -33 114 9 0 16 7
16 15 0 12 -16 15 -80 15 -64 0 -80 -3 -80 -15z"/>
</g>
</svg>
